<svg width="115" height="120" viewBox="0 0 115 120" fill="none" xmlns="http://www.w3.org/2000/svg">
<path d="M65.0134 94.9998C67.3205 94.9998 69.3323 92.9879 69.3323 90.6808V80.5942H72.2162C73.9467 80.5942 75.1 79.4405 75.1 77.7104V48.9016H40.5215V77.7106C40.5215 79.4409 41.675 80.5945 43.4053 80.5945H46.2894V90.6811C46.2894 92.9881 48.3008 95 50.6083 95C52.9151 95 54.9268 92.9881 54.9268 90.6811V80.5945H60.6947V90.6811C60.6945 92.9879 62.7063 94.9998 65.0134 94.9998Z" fill="#4A5477"/>
<path d="M82.3023 77.7106C84.6094 77.7106 86.6208 75.699 86.6208 73.3917V53.2187C86.6208 50.9239 84.6094 48.9016 82.3023 48.9016C79.9951 48.9016 77.9834 50.9239 77.9834 53.2187V73.3917C77.9834 75.6987 79.9948 77.7106 82.3023 77.7106Z" fill="#4A5477"/>
<path d="M33.3185 77.7106C35.6258 77.7106 37.6374 75.699 37.6374 73.3917V53.2187C37.6374 50.9239 35.626 48.9016 33.3185 48.9016C31.0114 48.9016 29 50.9239 29 53.2187V73.3917C29 75.6987 31.0114 77.7106 33.3185 77.7106Z" fill="#4A5477"/>
<path d="M71.6392 26.4352C71.0626 25.8549 70.2043 25.8549 69.6278 26.4352L65.7599 30.2902L65.5814 30.4684C63.2879 29.3199 60.7166 28.7464 57.853 28.7408C57.8389 28.7408 57.8251 28.7404 57.8111 28.7404H57.8106C57.7961 28.7404 57.7828 28.7408 57.7683 28.7408C54.9049 28.7464 52.3335 29.3199 50.0403 30.4684L49.8614 30.2902L45.9937 26.4352C45.4167 25.8549 44.5588 25.8549 43.9823 26.4352C43.4053 27.0122 43.4053 27.8684 43.9823 28.445L47.7238 32.1872C46.5182 32.9921 45.425 33.9771 44.4743 35.1037C42.1984 37.8015 40.7467 41.3125 40.547 45.1166C40.5452 45.1562 40.5413 45.1953 40.5394 45.2349C40.5272 45.494 40.5215 45.7544 40.5215 46.0157H75.1C75.1 45.7544 75.0938 45.494 75.082 45.2349C75.0802 45.1953 75.0763 45.1562 75.074 45.1166C74.8748 41.3125 73.4227 37.8012 71.1467 35.1039C70.1965 33.9773 69.1028 32.9923 67.8972 32.1874L71.6392 28.4452C72.2162 27.8684 72.2162 27.0122 71.6392 26.4352ZM50.6028 40.9805C49.4097 40.9805 48.4424 40.0132 48.4424 38.8201C48.4424 37.6269 49.4097 36.6597 50.6028 36.6597C51.7959 36.6597 52.7632 37.6269 52.7632 38.8201C52.7632 40.0132 51.7959 40.9805 50.6028 40.9805ZM65.0187 40.9805C63.8256 40.9805 62.8583 40.0132 62.8583 38.8201C62.8583 37.6269 63.8256 36.6597 65.0187 36.6597C66.2118 36.6597 67.1791 37.6269 67.1791 38.8201C67.1791 40.0132 66.2118 40.9805 65.0187 40.9805Z" fill="#4A5477"/>
</svg>
