<svg width="115" height="120" viewBox="0 0 115 120" fill="none" xmlns="http://www.w3.org/2000/svg">
<g clip-path="url(#clip0_376_1332)">
<path d="M57.4081 28.0522C40.5745 28.0522 41.6256 35.3218 41.6256 35.3218L41.6443 42.8533H57.7082V45.1144H35.264C35.264 45.1144 24.4922 43.8979 24.4922 60.8119C24.4922 77.7265 33.8941 77.1266 33.8941 77.1266H39.505V69.2776C39.505 69.2776 39.2026 59.915 48.7568 59.915H64.6894C64.6894 59.915 73.6407 60.059 73.6407 51.2998V36.8171C73.6407 36.8171 75.0003 28.0522 57.4081 28.0522ZM48.5504 33.117C48.93 33.1167 49.306 33.1909 49.6567 33.3354C50.0075 33.4799 50.3262 33.6919 50.5946 33.9592C50.8631 34.2265 51.0759 34.5438 51.221 34.8931C51.3661 35.2425 51.4406 35.6168 51.4403 35.9948C51.4406 36.3729 51.3661 36.7472 51.221 37.0965C51.0759 37.4459 50.8631 37.7632 50.5946 38.0305C50.3262 38.2978 50.0075 38.5098 49.6567 38.6543C49.306 38.7988 48.93 38.873 48.5504 38.8727C48.1708 38.873 47.7949 38.7988 47.4441 38.6543C47.0933 38.5098 46.7746 38.2978 46.5062 38.0305C46.2378 37.7632 46.0249 37.4459 45.8798 37.0965C45.7347 36.7472 45.6602 36.3729 45.6605 35.9948C45.6602 35.6168 45.7347 35.2425 45.8798 34.8931C46.0249 34.5438 46.2378 34.2265 46.5062 33.9592C46.7746 33.6919 47.0933 33.4799 47.4441 33.3354C47.7949 33.1909 48.1708 33.1167 48.5504 33.117Z" />
<path d="M57.8852 93.7418C74.7188 93.7418 73.6677 86.4722 73.6677 86.4722L73.649 78.941H57.5848V76.6798H80.0291C80.0291 76.6798 90.8008 77.8964 90.8008 60.9818C90.8008 44.0676 81.399 44.6674 81.399 44.6674H75.788V52.5162C75.788 52.5162 76.0905 61.8788 66.5362 61.8788H50.6037C50.6037 61.8788 41.6523 61.7348 41.6523 70.4942V84.9772C41.6523 84.9772 40.293 93.7418 57.885 93.7418H57.8852ZM66.7429 88.6775C66.3633 88.6778 65.9873 88.6036 65.6366 88.4591C65.2858 88.3146 64.9671 88.1027 64.6987 87.8354C64.4302 87.5681 64.2174 87.2507 64.0723 86.9014C63.9272 86.5521 63.8526 86.1777 63.853 85.7997C63.8526 85.4216 63.9271 85.0472 64.0722 84.6979C64.2173 84.3486 64.4301 84.0312 64.6986 83.7638C64.967 83.4965 65.2857 83.2845 65.6365 83.14C65.9873 82.9955 66.3633 82.9213 66.7429 82.9216C67.1225 82.9213 67.4984 82.9955 67.8492 83.14C68.2 83.2845 68.5187 83.4964 68.7871 83.7637C69.0555 84.031 69.2684 84.3484 69.4135 84.6977C69.5586 85.047 69.6331 85.4214 69.6328 85.7994C69.6331 86.1774 69.5586 86.5518 69.4135 86.9011C69.2684 87.2504 69.0555 87.5678 68.7871 87.8351C68.5187 88.1024 68.2 88.3144 67.8492 88.4589C67.4984 88.6034 67.1225 88.6778 66.7429 88.6775Z" />
</g>
<defs>
<clipPath id="clip0_376_1332">
<rect width="66.4762" height="65.9341" fill="white" transform="translate(24.4541 28.0337)"/>
</clipPath>
</defs>
</svg>
